<svg width="295" height="61" viewBox="0 0 295 61" fill="none" xmlns="http://www.w3.org/2000/svg">
<path d="M38.5554 7.2537L5.88792 40.0069C7.34187 39.4486 8.2136 39.3274 9.87059 39.3576L35.4401 39.4623L53.0222 21.7205C61.4481 10.9103 47.779 -0.214567 38.5554 7.2537Z" fill="white"/>
<path d="M10.6317 3.91455L40.6194 3.97518C39.1966 4.60852 38.4944 5.13921 37.3441 6.33222L20.5001 22.8079L11.794 22.695C-1.74523 23.1965 -0.977149 4.25157 10.6317 3.91455Z" fill="white"/>
<path d="M10.0289 40.8979H46.1126C46.1126 40.8979 55.1822 41.4165 55.1822 50.5082C55.1823 59.5999 46.1126 60.1184 46.1126 60.1184H10.0289C-3.84678 59.3764 -2.37592 40.8979 10.0289 40.8979Z" fill="white"/>
<circle cx="68.4102" cy="50.4624" r="9.56447" fill="white"/>
<path d="M98.9746 44.767V41.9722L114.127 20.3172H98.9746V17.5034H117.873V20.3172L102.72 41.9722H117.873V44.767H98.9746Z" fill="white"/>
<path d="M120.896 25.0703H123.843V36.7058C123.843 38.3408 124.388 39.7034 125.478 40.7934C126.58 41.8834 127.949 42.4285 129.584 42.4285C131.219 42.4285 132.588 41.8834 133.691 40.7934C134.794 39.7034 135.345 38.3408 135.345 36.7058V25.0703H138.292V36.7058C138.292 39.1393 137.462 41.1546 135.801 42.7517C134.154 44.3487 132.081 45.1472 129.584 45.1472C127.087 45.1472 125.015 44.3487 123.367 42.7517C121.72 41.1546 120.896 39.1393 120.896 36.7058V25.0703Z" fill="white"/>
<path d="M143.102 44.767V25.0703H146.068V28.2263C146.917 26.9335 148.058 25.9765 149.49 25.3555C150.922 24.7217 152.532 24.5443 154.319 24.8231L153.92 27.6749C151.765 27.2313 149.915 27.5799 148.368 28.7206C146.835 29.8487 146.068 31.4457 146.068 33.5117V44.767H143.102Z" fill="white"/>
<path d="M157.361 44.767V25.0703H160.327V44.767H157.361ZM157.361 21.9142V16.4957H160.327V21.9142H157.361Z" fill="white"/>
<path d="M184.112 44.767V20.3172H174.872V17.5034H196.374V20.3172H187.192V44.767H184.112Z" fill="white"/>
<path d="M194.34 34.9186C194.34 33.4864 194.6 32.1365 195.12 30.869C195.652 29.5889 196.368 28.4988 197.268 27.5989C198.168 26.699 199.245 25.9892 200.5 25.4695C201.755 24.9372 203.092 24.671 204.512 24.671C206.007 24.671 207.408 24.9625 208.713 25.5456C210.019 26.1159 211.122 26.8954 212.022 27.8841C212.921 28.86 213.606 30.0451 214.075 31.4394C214.544 32.8209 214.715 34.2912 214.588 35.8502H197.382C197.534 37.7514 198.288 39.3421 199.645 40.6223C201.013 41.9025 202.725 42.5425 204.778 42.5425C206.286 42.5425 207.63 42.1686 208.808 41.4208C210 40.6603 210.9 39.6337 211.508 38.3408L214.075 39.3865C213.226 41.1356 211.977 42.5362 210.329 43.5882C208.694 44.6276 206.818 45.1472 204.702 45.1472C202.775 45.1472 201.02 44.7036 199.435 43.8164C197.851 42.9164 196.603 41.687 195.69 40.128C194.79 38.5563 194.34 36.8198 194.34 34.9186ZM197.458 33.3976H211.546C211.267 31.6232 210.482 30.1592 209.189 29.0058C207.909 27.8524 206.35 27.2757 204.512 27.2757C202.674 27.2757 201.108 27.8587 199.816 29.0248C198.523 30.1909 197.737 31.6485 197.458 33.3976Z" fill="white"/>
<path d="M235.825 44.767V41.3067C234.95 42.5109 233.848 43.4551 232.517 44.1396C231.186 44.8113 229.716 45.1472 228.106 45.1472C226.243 45.1472 224.544 44.7036 223.011 43.8164C221.49 42.9164 220.298 41.687 219.436 40.128C218.574 38.5563 218.143 36.8198 218.143 34.9186C218.143 32.0034 219.094 29.5698 220.995 27.6179C222.897 25.6533 225.267 24.671 228.106 24.671C229.716 24.671 231.186 25.0132 232.517 25.6977C233.848 26.3694 234.95 27.3137 235.825 28.5305V25.0703H238.791V44.767H235.825ZM221.185 34.9186C221.185 37.048 221.883 38.8351 223.277 40.2801C224.684 41.7123 226.426 42.4285 228.505 42.4285C230.584 42.4285 232.32 41.7123 233.715 40.2801C235.121 38.8351 235.825 37.048 235.825 34.9186C235.825 32.7766 235.121 30.9894 233.715 29.5572C232.32 28.1249 230.584 27.4088 228.505 27.4088C226.426 27.4088 224.684 28.1249 223.277 29.5572C221.883 30.9894 221.185 32.7766 221.185 34.9186Z" fill="white"/>
<path d="M243.753 44.767V25.0703H246.719V27.8651C247.403 26.8764 248.265 26.0969 249.305 25.5266C250.357 24.9562 251.504 24.671 252.746 24.671C254.267 24.671 255.629 25.0639 256.833 25.8498C258.05 26.6356 258.963 27.6876 259.571 29.0058C260.243 27.6749 261.168 26.6229 262.347 25.8498C263.526 25.0639 264.882 24.671 266.416 24.671C268.748 24.671 270.681 25.5012 272.214 27.1616C273.748 28.8093 274.515 30.888 274.515 33.3976V44.767H271.549V33.3976C271.549 31.6865 271.029 30.2606 269.99 29.1199C268.951 27.9791 267.645 27.4088 266.073 27.4088C264.514 27.4088 263.215 27.9791 262.176 29.1199C261.137 30.2606 260.617 31.6865 260.617 33.3976V44.767H257.651V33.3976C257.651 31.6865 257.125 30.2606 256.073 29.1199C255.034 27.9791 253.728 27.4088 252.156 27.4088C250.597 27.4088 249.298 27.9791 248.259 29.1199C247.232 30.2606 246.719 31.6865 246.719 33.3976V44.767H243.753Z" fill="white"/>
<path d="M282.868 17.4899C281.538 18.8208 280.886 20.4065 280.886 22.2753C280.886 24.1442 281.538 25.7582 282.868 27.089C284.199 28.4199 285.813 29.0711 287.682 29.0711C289.551 29.0711 291.137 28.4199 292.467 27.089C293.798 25.7582 294.478 24.1442 294.478 22.2753C294.478 20.4065 293.798 18.8208 292.467 17.4899C291.137 16.1591 289.551 15.4795 287.682 15.4795C285.813 15.4795 284.199 16.1591 282.868 17.4899ZM283.859 26.098C282.812 25.0503 282.274 23.7761 282.274 22.2753C282.274 20.7746 282.812 19.5004 283.859 18.4527C284.907 17.405 286.181 16.867 287.682 16.867C289.183 16.867 290.457 17.405 291.505 18.4527C292.552 19.5004 293.09 20.7746 293.09 22.2753C293.09 23.7761 292.552 25.0503 291.505 26.098C290.457 27.1457 289.183 27.6837 287.682 27.6837C286.181 27.6837 284.907 27.1457 283.859 26.098ZM290.4 21.0577C290.4 19.7269 289.409 18.7925 288.05 18.7925H285.304V25.6166H286.606V23.2947H287.739L289.098 25.6166H290.57L289.098 23.0682C289.976 22.7001 290.4 22.0205 290.4 21.0577ZM287.739 19.8968C288.645 19.8968 289.098 20.2649 289.098 21.0294C289.098 21.8223 288.645 22.2187 287.739 22.2187H286.606V19.8968H287.739Z" fill="white"/>
</svg>
