<svg width="14" height="11" viewBox="0 0 14 11" fill="none" xmlns="http://www.w3.org/2000/svg">
<path d="M13.9536 1.29029C13.4494 1.51551 12.9171 1.65627 12.3569 1.74073C12.9171 1.4029 13.3653 0.868008 13.5614 0.220504C13.0292 0.53018 12.4409 0.755398 11.7967 0.89616C11.2924 0.361266 10.5641 0.0234375 9.77979 0.0234375C8.26714 0.0234375 7.03461 1.26214 7.03461 2.78237C7.03461 3.00759 7.06262 3.20465 7.11865 3.40172C4.84968 3.28911 2.8048 2.19117 1.43221 0.502027C1.20811 0.924313 1.06805 1.37475 1.06805 1.88149C1.06805 2.83867 1.54426 3.68324 2.30058 4.18998C1.85239 4.16183 1.43221 4.04922 1.04004 3.85216V3.88031C1.04004 5.23162 1.99245 6.35772 3.25299 6.61109C3.02889 6.66739 2.77679 6.69554 2.52468 6.69554C2.35661 6.69554 2.16052 6.66739 1.99245 6.63924C2.35661 7.73718 3.36504 8.5536 4.56955 8.5536C3.61715 9.28556 2.44064 9.736 1.15209 9.736C0.927993 9.736 0.703897 9.736 0.507812 9.70785C1.74034 10.4961 3.16895 10.9465 4.73763 10.9465C9.8078 10.9465 12.581 6.7237 12.581 3.06389C12.581 2.95128 12.581 2.81052 12.581 2.69791C13.1132 2.33193 13.5894 1.85334 13.9536 1.29029Z" fill="#F5F0EE"/>
</svg>
