<svg width="97" height="17" viewBox="0 0 97 17" fill="none" xmlns="http://www.w3.org/2000/svg">
<path fill-rule="evenodd" clip-rule="evenodd" d="M9.18664 0.414121L9.65357 1.40644C10.7887 3.81869 13.0508 5.507 15.6863 5.90888L16.5731 6.04411C16.7052 6.06464 16.8148 6.16164 16.8559 6.29448C16.8971 6.42732 16.8627 6.57307 16.7672 6.67067L15.903 7.55443C14.1248 9.37282 13.3173 11.9283 13.7276 14.4383L13.9467 15.7789C13.9697 15.9165 13.9158 16.0556 13.8079 16.1378C13.6999 16.22 13.5567 16.2309 13.4385 16.1659L12.7371 15.7791C10.3321 14.453 7.4151 14.4531 5.01033 15.7795L4.30862 16.1666C4.19053 16.2318 4.04721 16.2211 3.93921 16.139C3.8312 16.0568 3.77735 15.9176 3.8004 15.78L4.0196 14.4389C4.42988 11.9286 3.62198 9.37279 1.84337 7.55444L0.978916 6.67067C0.883397 6.57307 0.849012 6.42732 0.890165 6.29448C0.931318 6.16164 1.0409 6.06464 1.17302 6.04411L2.06071 5.90875C4.69571 5.50694 6.95752 3.81917 8.09281 1.40758L8.5605 0.414121C8.61862 0.288667 8.74023 0.208984 8.87357 0.208984C9.00691 0.208984 9.12852 0.288667 9.18664 0.414121Z" fill="#F59E0B"/>
<path fill-rule="evenodd" clip-rule="evenodd" d="M29.1866 0.414121L29.6536 1.40644C30.7887 3.81869 33.0508 5.507 35.6863 5.90888L36.5731 6.04411C36.7052 6.06464 36.8148 6.16164 36.8559 6.29448C36.8971 6.42732 36.8627 6.57307 36.7672 6.67067L35.903 7.55443C34.1248 9.37282 33.3173 11.9283 33.7276 14.4383L33.9467 15.7789C33.9697 15.9165 33.9158 16.0556 33.8079 16.1378C33.6999 16.22 33.5567 16.2309 33.4385 16.1659L32.7371 15.7791C30.3321 14.453 27.4151 14.4531 25.0103 15.7795L24.3086 16.1666C24.1905 16.2318 24.0472 16.2211 23.9392 16.139C23.8312 16.0568 23.7773 15.9176 23.8004 15.78L24.0196 14.4389C24.4299 11.9286 23.622 9.37279 21.8434 7.55444L20.9789 6.67067C20.8834 6.57307 20.849 6.42732 20.8902 6.29448C20.9313 6.16164 21.0409 6.06464 21.173 6.04411L22.0607 5.90875C24.6957 5.50694 26.9575 3.81917 28.0928 1.40758L28.5605 0.414121C28.6186 0.288667 28.7402 0.208984 28.8736 0.208984C29.0069 0.208984 29.1285 0.288667 29.1866 0.414121Z" fill="#F59E0B"/>
<path fill-rule="evenodd" clip-rule="evenodd" d="M49.1866 0.414121L49.6536 1.40644C50.7887 3.81869 53.0508 5.507 55.6863 5.90888L56.5731 6.04411C56.7052 6.06464 56.8148 6.16164 56.8559 6.29448C56.8971 6.42732 56.8627 6.57307 56.7672 6.67067L55.903 7.55443C54.1248 9.37282 53.3173 11.9283 53.7276 14.4383L53.9467 15.7789C53.9697 15.9165 53.9158 16.0556 53.8079 16.1378C53.6999 16.22 53.5567 16.2309 53.4385 16.1659L52.7371 15.7791C50.3321 14.453 47.4151 14.4531 45.0103 15.7795L44.3086 16.1666C44.1905 16.2318 44.0472 16.2211 43.9392 16.139C43.8312 16.0568 43.7773 15.9176 43.8004 15.78L44.0196 14.4389C44.4299 11.9286 43.622 9.37279 41.8434 7.55444L40.9789 6.67067C40.8834 6.57307 40.849 6.42732 40.8902 6.29448C40.9313 6.16164 41.0409 6.06464 41.173 6.04411L42.0607 5.90875C44.6957 5.50694 46.9575 3.81917 48.0928 1.40758L48.5605 0.414121C48.6186 0.288667 48.7402 0.208984 48.8736 0.208984C49.0069 0.208984 49.1285 0.288667 49.1866 0.414121Z" fill="#F59E0B"/>
<path fill-rule="evenodd" clip-rule="evenodd" d="M69.1866 0.414121L69.6536 1.40644C70.7887 3.81869 73.0508 5.507 75.6863 5.90888L76.5731 6.04411C76.7052 6.06464 76.8148 6.16164 76.8559 6.29448C76.8971 6.42732 76.8627 6.57307 76.7672 6.67067L75.903 7.55443C74.1248 9.37282 73.3173 11.9283 73.7276 14.4383L73.9467 15.7789C73.9697 15.9165 73.9158 16.0556 73.8079 16.1378C73.6999 16.22 73.5567 16.2309 73.4385 16.1659L72.7371 15.7791C70.3321 14.453 67.4151 14.4531 65.0103 15.7795L64.3086 16.1666C64.1905 16.2318 64.0472 16.2211 63.9392 16.139C63.8312 16.0568 63.7773 15.9176 63.8004 15.78L64.0196 14.4389C64.4299 11.9286 63.622 9.37279 61.8434 7.55444L60.9789 6.67067C60.8834 6.57307 60.849 6.42732 60.8902 6.29448C60.9313 6.16164 61.0409 6.06464 61.173 6.04411L62.0607 5.90875C64.6957 5.50694 66.9575 3.81917 68.0928 1.40758L68.5605 0.414121C68.6186 0.288667 68.7402 0.208984 68.8736 0.208984C69.0069 0.208984 69.1285 0.288667 69.1866 0.414121Z" fill="#F59E0B"/>
<path fill-rule="evenodd" clip-rule="evenodd" d="M89.1866 0.414121L89.6536 1.40644C90.7887 3.81869 93.0508 5.507 95.6863 5.90888L96.5731 6.04411C96.7052 6.06464 96.8148 6.16164 96.8559 6.29448C96.8971 6.42732 96.8627 6.57307 96.7672 6.67067L95.903 7.55443C94.1248 9.37282 93.3173 11.9283 93.7276 14.4383L93.9467 15.7789C93.9697 15.9165 93.9158 16.0556 93.8079 16.1378C93.6999 16.22 93.5567 16.2309 93.4385 16.1659L92.7371 15.7791C90.3321 14.453 87.4151 14.4531 85.0103 15.7795L84.3086 16.1666C84.1905 16.2318 84.0472 16.2211 83.9392 16.139C83.8312 16.0568 83.7773 15.9176 83.8004 15.78L84.0196 14.4389C84.4299 11.9286 83.622 9.37279 81.8434 7.55444L80.9789 6.67067C80.8834 6.57307 80.849 6.42732 80.8902 6.29448C80.9313 6.16164 81.0409 6.06464 81.173 6.04411L82.0607 5.90875C84.6957 5.50694 86.9575 3.81917 88.0928 1.40758L88.5605 0.414121C88.6186 0.288667 88.7402 0.208984 88.8736 0.208984C89.0069 0.208984 89.1285 0.288667 89.1866 0.414121Z" fill="#F59E0B"/>
</svg>
