<svg width="150" height="150" viewBox="0 0 150 150" fill="none" xmlns="http://www.w3.org/2000/svg">
<rect width="149.166" height="149.166" rx="74.583" fill="#F5F0EE"/>
<rect width="149.166" height="149.166" rx="74.583" fill="#F5F0EE"/>
<path d="M85.0582 55.29L94.9874 50.8016L97.8439 51.2092C97.2092 52.7507 95.8309 55.997 95.3956 56.6499C94.9603 57.3028 92.5846 63.5415 91.4511 66.5792L90.2269 75.4204L91.9951 83.9895L95.8037 93.7828L98.388 99.3596L89.2748 96.2312L82.3379 93.6468L73.4967 92.1506L66.9678 93.2388L59.6228 94.871L52.4139 96.6392L48.6055 97.1835L49.8295 94.0549C50.8723 91.2892 53.0395 85.5129 53.366 84.5336C53.6924 83.5543 55.497 77.7781 56.3585 75.0124L56.0864 67.3953L52.0058 56.5139L49.8296 50.8012L53.6378 51.617L65.0635 55.4256L74.4489 56.922L85.0582 55.29Z" fill="#ED4C4E"/>
</svg>
