<svg width="55" height="44" viewBox="0 0 55 44" fill="none" xmlns="http://www.w3.org/2000/svg">
<path d="M49.9157 36.4932H50.0407V36.3682V6.78243V6.65743H49.9157H5.08496H4.95996V6.78243V36.3682V36.4932H5.08496H8.40788C8.81501 36.4932 9.14225 36.8205 9.14225 37.2281C9.14225 37.6356 8.81501 37.9629 8.40788 37.9629H4.22559C3.81845 37.9629 3.49121 37.6356 3.49121 37.2281V5.92259C3.49121 5.51506 3.81845 5.18774 4.22559 5.18774H50.7751C51.1822 5.18774 51.5094 5.51506 51.5094 5.92259V37.2281C51.5094 37.632 51.1786 37.9629 50.7751 37.9629H46.5928C46.1856 37.9629 45.8584 37.6356 45.8584 37.2281C45.8584 36.8205 46.1856 36.4932 46.5928 36.4932H49.9157Z" fill="#410603" stroke="#F5F0EE" stroke-width="0.25"/>
<path d="M1.59375 5.06254V5.18754H1.71875H53.2812H53.4062V5.06254V2.52242V2.39742H53.2812H1.71875H1.59375V2.52242V5.06254ZM54.1406 6.65723H0.859375C0.452238 6.65723 0.125 6.32991 0.125 5.92239V1.66258C0.125 1.25505 0.452238 0.927734 0.859375 0.927734H54.1406C54.5478 0.927734 54.875 1.25505 54.875 1.66258V5.92239C54.875 6.32991 54.5478 6.65723 54.1406 6.65723Z" fill="#410603" stroke="#F5F0EE" stroke-width="0.25"/>
<path d="M15.0303 34.5983C12.2992 34.5983 10.0742 32.3757 10.0742 29.6395C10.0742 26.9032 12.2957 24.6807 15.0303 24.6807C17.7614 24.6807 19.9863 26.9033 19.9863 29.6395C19.9863 32.3758 17.7649 34.5983 15.0303 34.5983ZM15.0303 26.1504C13.1064 26.1504 11.543 27.7147 11.543 29.6395C11.543 31.5643 13.1064 33.1286 15.0303 33.1286C16.9542 33.1286 18.5176 31.5643 18.5176 29.6395C18.5176 27.7147 16.9542 26.1504 15.0303 26.1504Z" fill="#410603" stroke="#F5F0EE" stroke-width="0.25"/>
<path d="M33.1401 37.0639L33.1401 37.0639C32.0066 35.5201 30.1896 34.5982 28.2769 34.5982H26.7193C24.8067 34.5982 22.9897 35.5201 21.8562 37.0639L21.8559 37.0643C21.6174 37.3916 21.1553 37.4619 20.8315 37.2235L20.8311 37.2232C20.5039 36.9846 20.4336 36.5221 20.6719 36.1981L20.672 36.198C21.3554 35.2675 22.2537 34.4957 23.2748 33.9672C24.3312 33.4211 25.5218 33.1321 26.7193 33.1321H28.2769C29.4745 33.1321 30.6651 33.4211 31.7215 33.9672C32.7428 34.4957 33.6445 35.2676 34.3241 36.1978C34.563 36.5257 34.4921 36.9848 34.1652 37.2232L34.1646 37.2237C34.0369 37.3179 33.8843 37.364 33.734 37.364C33.507 37.364 33.2838 37.2597 33.1401 37.0639ZM21.957 37.1379C21.6777 37.5213 21.137 37.6037 20.7574 37.3242L21.957 37.1379Z" fill="#410603" stroke="#F5F0EE" stroke-width="0.25"/>
<path d="M27.501 34.5978C24.7699 34.5978 22.5449 32.3752 22.5449 29.639C22.5449 26.9027 24.7664 24.6802 27.501 24.6802C30.2356 24.6802 32.457 26.9027 32.457 29.639C32.457 32.3752 30.2321 34.5978 27.501 34.5978ZM27.501 26.1499C25.5771 26.1499 24.0137 27.7142 24.0137 29.639C24.0137 31.5638 25.5771 33.1281 27.501 33.1281C29.4249 33.1281 30.9883 31.5638 30.9883 29.639C30.9883 27.7142 29.4249 26.1499 27.501 26.1499Z" fill="#410603" stroke="#F5F0EE" stroke-width="0.25"/>
<path d="M23.307 41.5087V41.6337H23.432H31.5638H31.6888V41.5087V40.6274C31.6888 36.4903 35.0525 33.1284 39.1836 33.1284H40.7412C44.8759 33.1284 48.236 36.4938 48.236 40.6274L48.236 42.3685L48.236 42.3695C48.2391 42.7761 47.9125 43.1034 47.5052 43.1034H7.49414C7.087 43.1034 6.75977 42.7761 6.75977 42.3685V40.6274C6.75977 36.4903 10.1234 33.1284 14.2546 33.1284H15.8122C19.9468 33.1284 23.307 36.4938 23.307 40.6274V41.5087ZM33.1611 41.5082L33.1606 41.6337H33.2861H46.6494H46.7744V41.5087V40.6274C46.7744 37.3017 44.0724 34.5981 40.7484 34.5981H39.1908C35.8668 34.5981 33.1647 37.3017 33.1647 40.6273C33.1647 40.6273 33.1647 40.6274 33.1647 40.6274L33.1611 41.5082ZM21.7168 41.6337H21.8418V41.5087V40.6274C21.8418 37.3017 19.1397 34.5981 15.8158 34.5981H14.2581C10.9342 34.5981 8.2321 37.3017 8.2321 40.6274V41.5087H8.35352V41.6337H8.3571H8.4821H21.7168Z" fill="#410603" stroke="#F5F0EE" stroke-width="0.25"/>
<path d="M39.9687 34.5978C37.2377 34.5978 35.0127 32.3752 35.0127 29.639C35.0127 26.9027 37.2341 24.6802 39.9687 24.6802C42.7034 24.6802 44.9248 26.9027 44.9248 29.639C44.9248 32.3752 42.6998 34.5978 39.9687 34.5978ZM39.9687 26.1499C38.0448 26.1499 36.4814 27.7142 36.4814 29.639C36.4814 31.5638 38.0448 33.1281 39.9687 33.1281C41.8927 33.1281 43.4561 31.5638 43.4561 29.639C43.4561 27.7141 41.889 26.1499 39.9687 26.1499Z" fill="#410603" stroke="#F5F0EE" stroke-width="0.25"/>
<path d="M24.3472 13.7475H16.5161C16.109 13.7475 15.7817 13.4202 15.7817 13.0127C15.7817 12.6052 16.109 12.2778 16.5161 12.2778H24.3472C24.7543 12.2778 25.0815 12.6052 25.0815 13.0127C25.0815 13.4202 24.7543 13.7475 24.3472 13.7475Z" fill="#410603" stroke="#F5F0EE" stroke-width="0.25"/>
<path d="M11.6782 17.7416C11.6782 17.1657 12.1487 16.6951 12.7241 16.6951C13.2996 16.6951 13.77 17.1657 13.77 17.7416C13.77 18.3175 13.2996 18.7881 12.7241 18.7881C12.1487 18.7881 11.6782 18.3175 11.6782 17.7416Z" fill="#410603" stroke="#F5F0EE" stroke-width="0.25"/>
<path d="M13.7485 13.009C13.7485 13.5849 13.2781 14.0556 12.7026 14.0556C12.1267 14.0556 11.6567 13.588 11.6567 13.0126C11.6567 12.4367 12.1272 11.9661 12.7026 11.9661C13.2786 11.9661 13.7485 12.4336 13.7485 13.009Z" fill="#410603" stroke="#F5F0EE" stroke-width="0.25"/>
<path d="M24.3678 18.4731H16.5332C16.1261 18.4731 15.7988 18.1458 15.7988 17.7383C15.7988 17.3307 16.1261 17.0034 16.5332 17.0034H24.3678C24.775 17.0034 25.1022 17.3307 25.1022 17.7383C25.1022 18.1458 24.775 18.4731 24.3678 18.4731Z" fill="#410603" stroke="#F5F0EE" stroke-width="0.25"/>
<path d="M37.5347 22.0411C33.8619 22.0411 30.8706 19.0518 30.8706 15.3733C30.8706 11.6948 33.8583 8.70557 37.5347 8.70557C41.211 8.70557 44.1987 11.6948 44.1987 15.3733C44.1987 19.0518 41.211 22.0411 37.5347 22.0411ZM37.5347 10.1788C34.669 10.1788 32.3394 12.5099 32.3394 15.3769C32.3394 18.244 34.669 20.575 37.5347 20.575C40.4003 20.575 42.73 18.244 42.73 15.3769C42.73 12.5099 40.4003 10.1788 37.5347 10.1788Z" fill="#410603" stroke="#F5F0EE" stroke-width="0.25"/>
<path d="M37.5358 19.447C35.2918 19.447 33.4678 17.6222 33.4678 15.3767C33.4678 13.1313 35.2918 11.3064 37.5358 11.3064C39.7799 11.3064 41.6038 13.1313 41.6038 15.3767C41.6038 17.6222 39.7799 19.447 37.5358 19.447ZM37.5358 12.7725C36.1025 12.7725 34.9365 13.9392 34.9365 15.3731C34.9365 16.8071 36.1025 17.9738 37.5358 17.9738C38.9692 17.9738 40.1351 16.8071 40.1351 15.3731C40.1351 13.9393 38.9729 12.7725 37.5358 12.7725Z" fill="#410603" stroke="#F5F0EE" stroke-width="0.25"/>
<path d="M37.5356 12.7728C37.1285 12.7728 36.8013 12.4455 36.8013 12.0379V9.44407C36.8013 9.03655 37.1285 8.70923 37.5356 8.70923C37.9428 8.70923 38.27 9.03655 38.27 9.44407V12.0379C38.27 12.4455 37.9428 12.7728 37.5356 12.7728Z" fill="#410603" stroke="#F5F0EE" stroke-width="0.25"/>
<path d="M43.4507 16.1115H40.8726C40.4654 16.1115 40.1382 15.7842 40.1382 15.3767C40.1382 14.9692 40.4654 14.6418 40.8726 14.6418H43.4507C43.8578 14.6418 44.1851 14.9692 44.1851 15.3767C44.1851 15.7842 43.8578 16.1115 43.4507 16.1115Z" fill="#410603" stroke="#F5F0EE" stroke-width="0.25"/>
<path d="M32.629 10.8656L32.6294 10.8651C32.9175 10.5769 33.3822 10.5776 33.666 10.8646L33.666 10.8646L33.6665 10.8651L35.507 12.7066C35.795 12.9948 35.7943 13.4599 35.5074 13.7439L35.506 13.7454C35.3665 13.888 35.1811 13.9586 34.9902 13.9586C34.8029 13.9586 34.6133 13.8879 34.4699 13.7444L32.6294 11.9029C32.3414 11.6147 32.342 11.1496 32.629 10.8656Z" fill="#410603" stroke="#F5F0EE" stroke-width="0.25"/>
</svg>
