<svg width="46" height="49" viewBox="0 0 46 49" fill="none" xmlns="http://www.w3.org/2000/svg">
<path d="M45.8641 32.4692C45.8184 32.1738 45.5898 31.9418 45.3054 31.8996L43.7611 31.6834C43.5021 30.6498 43.111 29.6689 42.5928 28.7513L43.5376 27.4645C43.7154 27.2272 43.7154 26.895 43.5478 26.6524C42.7503 25.5186 41.7902 24.5219 40.6981 23.6939C40.4645 23.5146 40.1444 23.5199 39.9159 23.7045L38.6764 24.6854C37.7926 24.1475 36.8477 23.7361 35.8521 23.4725L35.6439 21.8693C35.6032 21.5687 35.3797 21.3367 35.0953 21.2892C34.6025 21.2101 34.1098 21.1574 33.6171 21.1363V18.5997C34.374 17.8825 34.76 17.0492 34.76 16.1053V8.01562C34.76 7.28787 34.1657 6.69723 33.4393 6.69723H25.3881V2.90554C25.3881 1.31292 24.1385 0.015625 22.6044 0.015625H12.1607C10.6266 0.015625 9.37703 1.31292 9.37703 2.90554V6.69723H1.32071C0.589239 6.69723 0 7.28787 0 8.01562V16.1053C0 17.1916 0.487646 17.9827 1.14292 18.5628V33.2707C1.14292 34.3676 2.00138 35.2589 3.05795 35.2589H20.1357C20.1611 35.7335 20.2017 36.2028 20.2729 36.6722C20.3186 36.9675 20.5472 37.1995 20.8316 37.2417L22.3758 37.4579C22.6349 38.4916 23.026 39.4724 23.5442 40.39L22.5993 41.6768C22.4216 41.9141 22.4216 42.2463 22.5892 42.4889C23.3867 43.6227 24.3467 44.6194 25.4389 45.4474C25.6725 45.6267 25.9925 45.6214 26.2211 45.4369L27.4606 44.456C28.3444 44.9939 29.2892 45.4052 30.2848 45.6689L30.4931 47.2721C30.5338 47.5726 30.7573 47.8047 31.0417 47.8521C31.7122 47.9629 32.3827 48.0156 33.0583 48.0156C33.7339 48.0156 34.4044 47.9629 35.075 47.8521C35.3594 47.8047 35.5829 47.5674 35.6236 47.2721L35.8318 45.6689C36.8274 45.3999 37.7722 44.9939 38.6561 44.456L39.8955 45.4369C40.1241 45.6214 40.4441 45.6214 40.6778 45.4474C41.7699 44.6194 42.73 43.6227 43.5275 42.4889C43.7002 42.2463 43.6951 41.9141 43.5173 41.6768L42.5725 40.39C43.0906 39.4724 43.4868 38.4916 43.7408 37.4579L45.285 37.2417C45.5746 37.1995 45.7981 36.9675 45.8438 36.6722C46.0521 35.28 46.0521 33.8719 45.8438 32.485L45.8641 32.4692ZM10.6876 2.88972C10.6876 2.04595 11.3479 1.36038 12.1607 1.36038H22.5892C23.4019 1.36038 24.0623 2.04595 24.0623 2.88972V6.68141H10.6876V2.88972ZM1.31055 8.04727C1.31055 8.04727 1.31563 8.04727 1.32071 8.04727H33.4241H33.4342V16.0947C33.4342 17.5502 31.631 18.4731 30.1172 18.9846C28.1362 19.6597 25.3779 20.0868 22.1117 20.2292V19.2641C22.1117 18.22 21.2939 17.3657 20.283 17.3657H14.3652C13.3595 17.3657 12.5366 18.2147 12.5366 19.2641V19.8917C9.43798 19.5806 6.52734 19.2747 4.43961 18.6788C1.62549 17.8772 1.30039 16.8172 1.30039 16.0947V8.04727H1.31055ZM13.8573 20.6405V19.2694C13.8573 18.9741 14.0909 18.7315 14.3754 18.7315H20.2932C20.5776 18.7315 20.8113 18.9741 20.8113 19.2694V22.5865C20.8113 22.8818 20.5776 23.1244 20.2932 23.1244H14.3754C14.0909 23.1244 13.8573 22.8818 13.8573 22.5865V20.6458V20.6405ZM2.45347 33.2602V19.396C3.11382 19.7071 3.7437 19.8917 4.10943 19.9919C6.32924 20.6247 9.34655 20.9359 12.5518 21.2575V22.5812C12.5518 23.6254 13.3696 24.4797 14.3805 24.4797H20.2983C21.304 24.4797 22.1269 23.6307 22.1269 22.5812V21.5951C25.5354 21.4474 28.4359 20.9991 30.5388 20.2819C31.2043 20.0552 31.7935 19.802 32.3065 19.5225V21.1468C31.89 21.1732 31.4735 21.2154 31.062 21.2839C30.7776 21.3314 30.5541 21.5687 30.5134 21.864L30.3052 23.4672C29.3096 23.7361 28.3647 24.1422 27.4809 24.6801L26.2414 23.6992C26.0129 23.5146 25.6928 23.5146 25.4592 23.6887C24.3671 24.5166 23.407 25.5133 22.6095 26.6471C22.4368 26.8897 22.4419 27.222 22.6197 27.4593L23.5645 28.746C23.0464 29.6636 22.6501 30.6445 22.3962 31.6781L20.8519 31.8943C20.5624 31.9365 20.3389 32.1686 20.2932 32.4639C20.2221 32.9332 20.1764 33.4026 20.156 33.8772H3.05287C2.72269 33.8772 2.44839 33.5977 2.44839 33.2496L2.45347 33.2602ZM44.6348 35.9497L43.1364 36.1606C42.8621 36.1976 42.6436 36.4138 42.5827 36.6933C42.3338 37.8956 41.8868 39.0242 41.2467 40.0525C41.0943 40.2951 41.1096 40.6063 41.2772 40.833L42.1915 42.0829C41.6379 42.8053 41.0029 43.4645 40.307 44.0394L39.1031 43.0901C38.8847 42.9161 38.5799 42.9055 38.3513 43.0585C37.3608 43.7229 36.2738 44.1923 35.1156 44.4454C34.8464 44.5034 34.6381 44.7355 34.6025 45.0202L34.3994 46.5759C33.5155 46.6814 32.6215 46.6814 31.7325 46.5759L31.5294 45.0202C31.4938 44.7355 31.2855 44.5087 31.0163 44.4454C29.8582 44.187 28.7711 43.7229 27.7806 43.0585C27.5469 42.9003 27.2472 42.9161 27.0288 43.0901L25.8249 44.0394C25.129 43.4645 24.4941 42.8106 23.9404 42.0829L24.8547 40.833C25.0223 40.6063 25.0325 40.2898 24.8852 40.0525C24.2451 39.0242 23.7931 37.8956 23.5492 36.6933C23.4934 36.4138 23.2699 36.1976 22.9956 36.1606L21.4971 35.9497C21.4463 35.4909 21.4209 35.0321 21.4209 34.5733C21.4209 34.1145 21.4463 33.6504 21.4971 33.1969L22.9956 32.986C23.2699 32.949 23.4883 32.7328 23.5492 32.4533C23.7981 31.251 24.2451 30.1224 24.8852 29.0941C25.0376 28.8515 25.0223 28.5403 24.8547 28.3136L23.9404 27.0637C24.4941 26.3413 25.1239 25.6821 25.8249 25.1073L27.0288 26.0565C27.2472 26.2305 27.552 26.2411 27.7806 26.0881C28.7711 25.4237 29.8582 24.9543 31.0163 24.7012C31.2855 24.6432 31.4938 24.4111 31.5294 24.1264L31.7325 22.5707C32.6164 22.4652 33.5104 22.4652 34.3994 22.5707L34.6025 24.1264C34.6381 24.4111 34.8464 24.6379 35.1156 24.7012C36.2738 24.9596 37.3608 25.4237 38.3513 26.0881C38.585 26.2463 38.8847 26.2305 39.1031 26.0565L40.307 25.1073C41.0029 25.6821 41.6379 26.3413 42.1915 27.0637L41.2772 28.3136C41.1096 28.5403 41.0994 28.8568 41.2467 29.0941C41.8868 30.1224 42.3388 31.251 42.5827 32.4533C42.6385 32.7328 42.8621 32.949 43.1364 32.986L44.6348 33.1969C44.7364 34.1145 44.7364 35.0427 44.6348 35.9655V35.9497ZM33.0685 28.3927C31.4786 28.3927 29.9851 29.0361 28.8625 30.2015C26.5411 32.6115 26.5411 36.5245 28.8625 38.9345C29.9851 40.1 31.4786 40.7434 33.0685 40.7434C34.6584 40.7434 36.1518 40.1 37.2744 38.9345C39.5958 36.5245 39.5958 32.6115 37.2744 30.2015C36.1518 29.0361 34.6584 28.3927 33.0685 28.3927ZM36.3499 37.9748C35.4762 38.8818 34.3079 39.3828 33.0685 39.3828C31.8291 39.3828 30.6658 38.8818 29.787 37.9748C28.9133 37.0677 28.4308 35.8548 28.4308 34.568C28.4308 33.2813 28.9133 32.0736 29.787 31.1613C30.6607 30.2543 31.8291 29.7533 33.0685 29.7533C34.3079 29.7533 35.4712 30.2543 36.3499 31.1613C37.2236 32.0684 37.7062 33.2813 37.7062 34.568C37.7062 35.8548 37.2236 37.0624 36.3499 37.9748Z" fill="#410603"/>
</svg>
