<svg width="1920" height="58" viewBox="0 0 1920 58" fill="none" xmlns="http://www.w3.org/2000/svg">
<path d="M-18.2622 44.0078H12.6056L1.53301 55.0803C-1.21241 57.3619 -0.754608 57.9302 -6.06167 57.9302H-32.1958L-18.2622 44.0078Z" fill="#410603"/>
<path d="M38.9038 44.0078H69.7716L58.699 55.0803C55.9536 57.3619 56.4114 57.9302 51.1043 57.9302H24.9702L38.9038 44.0078Z" fill="#410603"/>
<path d="M96.0698 44.0078H126.938L115.865 55.0803C113.12 57.3619 113.577 57.9302 108.27 57.9302H82.1362L96.0698 44.0078Z" fill="#410603"/>
<path d="M153.236 44.0078H184.104L173.031 55.0803C170.286 57.3619 170.743 57.9302 165.436 57.9302H139.302L153.236 44.0078Z" fill="#410603"/>
<path d="M210.402 44.0078H241.27L230.197 55.0803C227.452 57.3619 227.909 57.9302 222.602 57.9302H196.468L210.402 44.0078Z" fill="#410603"/>
<path d="M267.568 44.0078H298.436L287.363 55.0803C284.618 57.3619 285.075 57.9302 279.768 57.9302H253.634L267.568 44.0078Z" fill="#410603"/>
<path d="M324.734 44.0078H355.602L344.529 55.0803C341.784 57.3619 342.241 57.9302 336.934 57.9302H310.8L324.734 44.0078Z" fill="#410603"/>
<path d="M381.9 44.0078H412.768L401.695 55.0803C398.95 57.3619 399.408 57.9302 394.1 57.9302H367.966L381.9 44.0078Z" fill="#410603"/>
<path d="M439.066 44.0078H469.934L458.861 55.0803C456.116 57.3619 456.574 57.9302 451.266 57.9302H425.132L439.066 44.0078Z" fill="#410603"/>
<path d="M496.232 44.0078H527.1L516.027 55.0803C513.282 57.3619 513.74 57.9302 508.432 57.9302H482.298L496.232 44.0078Z" fill="#410603"/>
<path d="M553.398 44.0078H584.266L573.193 55.0803C570.448 57.3619 570.906 57.9302 565.598 57.9302H539.464L553.398 44.0078Z" fill="#410603"/>
<path d="M10.5444 27.0996H41.4122L30.3397 38.1721C27.5942 40.4537 28.052 41.022 22.745 41.022H-3.38916L10.5444 27.0996Z" fill="#410603"/>
<path d="M67.7104 27.0996H98.5782L87.5057 38.1721C84.7602 40.4537 85.218 41.022 79.911 41.022H53.7769L67.7104 27.0996Z" fill="#410603"/>
<path d="M124.876 27.0996H155.744L144.672 38.1721C141.926 40.4537 142.384 41.022 137.077 41.022H110.943L124.876 27.0996Z" fill="#410603"/>
<path d="M182.042 27.0996H212.91L201.838 38.1721C199.092 40.4537 199.55 41.022 194.243 41.022H168.109L182.042 27.0996Z" fill="#410603"/>
<path d="M239.208 27.0996H270.076L259.004 38.1721C256.258 40.4537 256.716 41.022 251.409 41.022H225.275L239.208 27.0996Z" fill="#410603"/>
<path d="M296.374 27.0996H327.242L316.17 38.1721C313.424 40.4537 313.882 41.022 308.575 41.022H282.441L296.374 27.0996Z" fill="#410603"/>
<path d="M353.54 27.0996H384.408L373.336 38.1721C370.59 40.4537 371.048 41.022 365.741 41.022H339.607L353.54 27.0996Z" fill="#410603"/>
<path d="M410.707 27.0996H441.574L430.502 38.1721C427.756 40.4537 428.214 41.022 422.907 41.022H396.773L410.707 27.0996Z" fill="#410603"/>
<path d="M467.873 27.0996H498.74L487.668 38.1721C484.922 40.4537 485.38 41.022 480.073 41.022H453.939L467.873 27.0996Z" fill="#410603"/>
<path d="M525.039 27.0996H555.906L544.834 38.1721C542.088 40.4537 542.546 41.022 537.239 41.022H511.105L525.039 27.0996Z" fill="#410603"/>
<path d="M582.205 27.0996H613.072L602 38.1721C599.254 40.4537 599.712 41.022 594.405 41.022H568.271L582.205 27.0996Z" fill="#410603"/>
<path d="M-18.2622 10.1894H12.6056L1.53301 21.262C-1.21241 23.5435 -0.754608 24.1118 -6.06167 24.1118H-32.1958L-18.2622 10.1894Z" fill="#410603"/>
<path d="M38.9038 10.1894H69.7716L58.699 21.262C55.9536 23.5435 56.4114 24.1118 51.1043 24.1118H24.9702L38.9038 10.1894Z" fill="#410603"/>
<path d="M96.0698 10.1894H126.938L115.865 21.262C113.12 23.5435 113.577 24.1118 108.27 24.1118H82.1362L96.0698 10.1894Z" fill="#410603"/>
<path d="M153.236 10.1894H184.104L173.031 21.262C170.286 23.5435 170.743 24.1118 165.436 24.1118H139.302L153.236 10.1894Z" fill="#410603"/>
<path d="M210.402 10.1894H241.27L230.197 21.262C227.452 23.5435 227.909 24.1118 222.602 24.1118H196.468L210.402 10.1894Z" fill="#410603"/>
<path d="M267.568 10.1894H298.436L287.363 21.262C284.618 23.5435 285.075 24.1118 279.768 24.1118H253.634L267.568 10.1894Z" fill="#410603"/>
<path d="M324.734 10.1894H355.602L344.529 21.262C341.784 23.5435 342.241 24.1118 336.934 24.1118H310.8L324.734 10.1894Z" fill="#410603"/>
<path d="M381.9 10.1894H412.768L401.695 21.262C398.95 23.5435 399.408 24.1118 394.1 24.1118H367.966L381.9 10.1894Z" fill="#410603"/>
<path d="M439.066 10.1894H469.934L458.861 21.262C456.116 23.5435 456.574 24.1118 451.266 24.1118H425.132L439.066 10.1894Z" fill="#410603"/>
<path d="M496.232 10.1894H527.1L516.027 21.262C513.282 23.5435 513.74 24.1118 508.432 24.1118H482.298L496.232 10.1894Z" fill="#410603"/>
<path d="M553.398 10.1894H584.266L573.193 21.262C570.448 23.5435 570.906 24.1118 565.598 24.1118H539.464L553.398 10.1894Z" fill="#410603"/>
<path d="M610.564 10.1894H641.432L630.359 21.262C627.614 23.5435 628.072 24.1118 622.764 24.1118H596.63L610.564 10.1894Z" fill="#410603"/>
<path d="M40.7593 48H3.96566L12.0753 36.9274C14.1203 34.0776 16.4687 33.9356 19.67 34.0776H54.6929L40.7593 48Z" fill="#ED4C4E"/>
<path d="M97.9253 48H61.1317L69.2413 36.9274C71.2864 34.0776 73.6347 33.9356 76.836 34.0776H111.859L97.9253 48Z" fill="#ED4C4E"/>
<path d="M155.091 48H118.298L126.407 36.9274C128.452 34.0776 130.801 33.9356 134.002 34.0776H169.025L155.091 48Z" fill="#ED4C4E"/>
<path d="M212.257 48H175.464L183.573 36.9274C185.618 34.0776 187.967 33.9356 191.168 34.0776H226.191L212.257 48Z" fill="#ED4C4E"/>
<path d="M269.423 48H232.63L240.739 36.9274C242.784 34.0776 245.133 33.9356 248.334 34.0776H283.357L269.423 48Z" fill="#ED4C4E"/>
<path d="M326.589 48H289.796L297.905 36.9274C299.95 34.0776 302.299 33.9356 305.5 34.0776H340.523L326.589 48Z" fill="#ED4C4E"/>
<path d="M383.755 48H346.962L355.071 36.9274C357.116 34.0776 359.465 33.9356 362.666 34.0776H397.689L383.755 48Z" fill="#ED4C4E"/>
<path d="M440.921 48H404.128L412.237 36.9274C414.282 34.0776 416.631 33.9356 419.832 34.0776H454.855L440.921 48Z" fill="#ED4C4E"/>
<path d="M498.087 48H461.294L469.403 36.9274C471.448 34.0776 473.797 33.9356 476.998 34.0776H512.021L498.087 48Z" fill="#ED4C4E"/>
<path d="M555.253 48H518.46L526.569 36.9274C528.614 34.0776 530.963 33.9356 534.164 34.0776H569.187L555.253 48Z" fill="#ED4C4E"/>
<path d="M12.3999 31.0918H-24.3937L-16.2841 20.0192C-14.239 17.1694 -11.8907 17.0273 -8.68942 17.1694H26.3335L12.3999 31.0918Z" fill="#ED4C4E"/>
<path d="M69.566 31.0918H32.7723L40.8819 20.0192C42.927 17.1694 45.2753 17.0273 48.4766 17.1694H83.4995L69.566 31.0918Z" fill="#ED4C4E"/>
<path d="M126.732 31.0918H89.9383L98.0479 20.0192C100.093 17.1694 102.441 17.0273 105.643 17.1694H140.666L126.732 31.0918Z" fill="#ED4C4E"/>
<path d="M183.898 31.0918H147.104L155.214 20.0192C157.259 17.1694 159.607 17.0273 162.809 17.1694H197.832L183.898 31.0918Z" fill="#ED4C4E"/>
<path d="M241.064 31.0918H204.27L212.38 20.0192C214.425 17.1694 216.773 17.0273 219.975 17.1694H254.998L241.064 31.0918Z" fill="#ED4C4E"/>
<path d="M298.23 31.0918H261.436L269.546 20.0192C271.591 17.1694 273.939 17.0273 277.141 17.1694H312.164L298.23 31.0918Z" fill="#ED4C4E"/>
<path d="M355.396 31.0918H318.602L326.712 20.0192C328.757 17.1694 331.105 17.0273 334.307 17.1694H369.33L355.396 31.0918Z" fill="#ED4C4E"/>
<path d="M412.562 31.0918H375.768L383.878 20.0192C385.923 17.1694 388.271 17.0273 391.473 17.1694H426.496L412.562 31.0918Z" fill="#ED4C4E"/>
<path d="M469.728 31.0918H432.934L441.044 20.0192C443.089 17.1694 445.437 17.0273 448.639 17.1694H483.662L469.728 31.0918Z" fill="#ED4C4E"/>
<path d="M526.894 31.0918H490.1L498.21 20.0192C500.255 17.1694 502.603 17.0273 505.805 17.1694H540.828L526.894 31.0918Z" fill="#ED4C4E"/>
<path d="M584.06 31.0918H547.266L555.376 20.0192C557.421 17.1694 559.769 17.0273 562.971 17.1694H597.994L584.06 31.0918Z" fill="#ED4C4E"/>
<path d="M40.7593 14.1816H3.96566L12.0753 3.10909C14.1203 0.259231 16.4687 0.117191 19.67 0.259231H54.6929L40.7593 14.1816Z" fill="#ED4C4E"/>
<path d="M97.9253 14.1816H61.1317L69.2413 3.10909C71.2864 0.259231 73.6347 0.117191 76.836 0.259231H111.859L97.9253 14.1816Z" fill="#ED4C4E"/>
<path d="M155.091 14.1816H118.298L126.407 3.10909C128.452 0.259231 130.801 0.117191 134.002 0.259231H169.025L155.091 14.1816Z" fill="#ED4C4E"/>
<path d="M212.257 14.1816H175.464L183.573 3.10909C185.618 0.259231 187.967 0.117191 191.168 0.259231H226.191L212.257 14.1816Z" fill="#ED4C4E"/>
<path d="M269.423 14.1816H232.63L240.739 3.10909C242.784 0.259231 245.133 0.117191 248.334 0.259231H283.357L269.423 14.1816Z" fill="#ED4C4E"/>
<path d="M326.589 14.1816H289.796L297.905 3.10909C299.95 0.259231 302.299 0.117191 305.5 0.259231H340.523L326.589 14.1816Z" fill="#ED4C4E"/>
<path d="M383.755 14.1816H346.962L355.071 3.10909C357.116 0.259231 359.465 0.117191 362.666 0.259231H397.689L383.755 14.1816Z" fill="#ED4C4E"/>
<path d="M440.921 14.1816H404.128L412.237 3.10909C414.282 0.259231 416.631 0.117191 419.832 0.259231H454.855L440.921 14.1816Z" fill="#ED4C4E"/>
<path d="M498.087 14.1816H461.294L469.403 3.10909C471.448 0.259231 473.797 0.117191 476.998 0.259231H512.021L498.087 14.1816Z" fill="#ED4C4E"/>
<path d="M555.253 14.1816H518.46L526.569 3.10909C528.614 0.259231 530.963 0.117191 534.164 0.259231H569.187L555.253 14.1816Z" fill="#ED4C4E"/>
<path d="M612.419 14.1816H575.626L583.735 3.10909C585.781 0.259231 588.129 0.117191 591.33 0.259231H626.353L612.419 14.1816Z" fill="#ED4C4E"/>
<path d="M619.203 44.0078H650.07L638.998 55.0803C636.252 57.3619 636.71 57.9302 631.403 57.9302H605.269L619.203 44.0078Z" fill="#410603"/>
<path d="M676.369 44.0078H707.236L696.164 55.0803C693.418 57.3619 693.876 57.9302 688.569 57.9302H662.435L676.369 44.0078Z" fill="#410603"/>
<path d="M733.535 44.0078H764.402L753.33 55.0803C750.584 57.3619 751.042 57.9302 745.735 57.9302H719.601L733.535 44.0078Z" fill="#410603"/>
<path d="M790.701 44.0078H821.568L810.496 55.0803C807.75 57.3619 808.208 57.9302 802.901 57.9302H776.767L790.701 44.0078Z" fill="#410603"/>
<path d="M847.867 44.0078H878.734L867.662 55.0803C864.916 57.3619 865.374 57.9302 860.067 57.9302H833.933L847.867 44.0078Z" fill="#410603"/>
<path d="M905.033 44.0078H935.9L924.828 55.0803C922.083 57.3619 922.54 57.9302 917.233 57.9302H891.099L905.033 44.0078Z" fill="#410603"/>
<path d="M962.199 44.0078H993.066L981.994 55.0803C979.249 57.3619 979.706 57.9302 974.399 57.9302H948.265L962.199 44.0078Z" fill="#410603"/>
<path d="M1019.36 44.0078H1050.23L1039.16 55.0803C1036.41 57.3619 1036.87 57.9302 1031.57 57.9302H1005.43L1019.36 44.0078Z" fill="#410603"/>
<path d="M1076.53 44.0078H1107.4L1096.33 55.0803C1093.58 57.3619 1094.04 57.9302 1088.73 57.9302H1062.6L1076.53 44.0078Z" fill="#410603"/>
<path d="M1133.7 44.0078H1164.56L1153.49 55.0803C1150.75 57.3619 1151.2 57.9302 1145.9 57.9302H1119.76L1133.7 44.0078Z" fill="#410603"/>
<path d="M1190.86 44.0078H1221.73L1210.66 55.0803C1207.91 57.3619 1208.37 57.9302 1203.06 57.9302H1176.93L1190.86 44.0078Z" fill="#410603"/>
<path d="M1248.03 44.0078H1278.9L1267.82 55.0803C1265.08 57.3619 1265.54 57.9302 1260.23 57.9302H1234.1L1248.03 44.0078Z" fill="#410603"/>
<path d="M648.009 27.0996H678.877L667.804 38.1721C665.059 40.4537 665.517 41.022 660.21 41.022H634.076L648.009 27.0996Z" fill="#410603"/>
<path d="M705.175 27.0996H736.043L724.971 38.1721C722.225 40.4537 722.683 41.022 717.376 41.022H691.242L705.175 27.0996Z" fill="#410603"/>
<path d="M762.341 27.0996H793.209L782.137 38.1721C779.391 40.4537 779.849 41.022 774.542 41.022H748.408L762.341 27.0996Z" fill="#410603"/>
<path d="M819.507 27.0996H850.375L839.303 38.1721C836.557 40.4537 837.015 41.022 831.708 41.022H805.574L819.507 27.0996Z" fill="#410603"/>
<path d="M876.673 27.0996H907.541L896.469 38.1721C893.723 40.4537 894.181 41.022 888.874 41.022H862.74L876.673 27.0996Z" fill="#410603"/>
<path d="M933.839 27.0996H964.707L953.635 38.1721C950.889 40.4537 951.347 41.022 946.04 41.022H919.906L933.839 27.0996Z" fill="#410603"/>
<path d="M991.005 27.0996H1021.87L1010.8 38.1721C1008.06 40.4537 1008.51 41.022 1003.21 41.022H977.072L991.005 27.0996Z" fill="#410603"/>
<path d="M1048.17 27.0996H1079.04L1067.97 38.1721C1065.22 40.4537 1065.68 41.022 1060.37 41.022H1034.24L1048.17 27.0996Z" fill="#410603"/>
<path d="M1105.34 27.0996H1136.21L1125.13 38.1721C1122.39 40.4537 1122.85 41.022 1117.54 41.022H1091.4L1105.34 27.0996Z" fill="#410603"/>
<path d="M1162.5 27.0996H1193.37L1182.3 38.1721C1179.55 40.4537 1180.01 41.022 1174.7 41.022H1148.57L1162.5 27.0996Z" fill="#410603"/>
<path d="M1219.67 27.0996H1250.54L1239.46 38.1721C1236.72 40.4537 1237.18 41.022 1231.87 41.022H1205.74L1219.67 27.0996Z" fill="#410603"/>
<path d="M1276.84 27.0996H1307.7L1296.63 38.1721C1293.89 40.4537 1294.34 41.022 1289.04 41.022H1262.9L1276.84 27.0996Z" fill="#410603"/>
<path d="M676.369 10.1894H707.236L696.164 21.262C693.418 23.5435 693.876 24.1118 688.569 24.1118H662.435L676.369 10.1894Z" fill="#410603"/>
<path d="M733.535 10.1894H764.402L753.33 21.262C750.584 23.5435 751.042 24.1118 745.735 24.1118H719.601L733.535 10.1894Z" fill="#410603"/>
<path d="M790.701 10.1894H821.568L810.496 21.262C807.75 23.5435 808.208 24.1118 802.901 24.1118H776.767L790.701 10.1894Z" fill="#410603"/>
<path d="M847.867 10.1894H878.734L867.662 21.262C864.916 23.5435 865.374 24.1118 860.067 24.1118H833.933L847.867 10.1894Z" fill="#410603"/>
<path d="M905.033 10.1894H935.9L924.828 21.262C922.083 23.5435 922.54 24.1118 917.233 24.1118H891.099L905.033 10.1894Z" fill="#410603"/>
<path d="M962.199 10.1894H993.066L981.994 21.262C979.249 23.5435 979.706 24.1118 974.399 24.1118H948.265L962.199 10.1894Z" fill="#410603"/>
<path d="M1019.36 10.1894H1050.23L1039.16 21.262C1036.41 23.5435 1036.87 24.1118 1031.57 24.1118H1005.43L1019.36 10.1894Z" fill="#410603"/>
<path d="M1076.53 10.1894H1107.4L1096.33 21.262C1093.58 23.5435 1094.04 24.1118 1088.73 24.1118H1062.6L1076.53 10.1894Z" fill="#410603"/>
<path d="M1133.7 10.1894H1164.56L1153.49 21.262C1150.75 23.5435 1151.2 24.1118 1145.9 24.1118H1119.76L1133.7 10.1894Z" fill="#410603"/>
<path d="M1190.86 10.1894H1221.73L1210.66 21.262C1207.91 23.5435 1208.37 24.1118 1203.06 24.1118H1176.93L1190.86 10.1894Z" fill="#410603"/>
<path d="M1248.03 10.1894H1278.9L1267.82 21.262C1265.08 23.5435 1265.54 24.1118 1260.23 24.1118H1234.1L1248.03 10.1894Z" fill="#410603"/>
<path d="M1305.19 10.1894H1336.06L1324.99 21.262C1322.24 23.5435 1322.7 24.1118 1317.4 24.1118H1291.26L1305.19 10.1894Z" fill="#410603"/>
<path d="M621.058 48H584.264L592.374 36.9274C594.419 34.0776 596.768 33.9356 599.969 34.0776H634.992L621.058 48Z" fill="#ED4C4E"/>
<path d="M678.224 48H641.431L649.54 36.9274C651.585 34.0776 653.934 33.9356 657.135 34.0776H692.158L678.224 48Z" fill="#ED4C4E"/>
<path d="M735.39 48H698.597L706.706 36.9274C708.751 34.0776 711.1 33.9356 714.301 34.0776H749.324L735.39 48Z" fill="#ED4C4E"/>
<path d="M792.556 48H755.763L763.872 36.9274C765.917 34.0776 768.266 33.9356 771.467 34.0776H806.49L792.556 48Z" fill="#ED4C4E"/>
<path d="M849.722 48H812.929L821.038 36.9274C823.083 34.0776 825.432 33.9356 828.633 34.0776H863.656L849.722 48Z" fill="#ED4C4E"/>
<path d="M906.888 48H870.095L878.204 36.9274C880.249 34.0776 882.598 33.9356 885.799 34.0776H920.822L906.888 48Z" fill="#ED4C4E"/>
<path d="M964.054 48H927.261L935.37 36.9274C937.415 34.0776 939.764 33.9356 942.965 34.0776H977.988L964.054 48Z" fill="#ED4C4E"/>
<path d="M1021.22 48H984.427L992.536 36.9274C994.581 34.0776 996.93 33.9356 1000.13 34.0776H1035.15L1021.22 48Z" fill="#ED4C4E"/>
<path d="M1078.39 48H1041.59L1049.7 36.9274C1051.75 34.0776 1054.1 33.9356 1057.3 34.0776H1092.32L1078.39 48Z" fill="#ED4C4E"/>
<path d="M1135.55 48H1098.76L1106.87 36.9274C1108.91 34.0776 1111.26 33.9356 1114.46 34.0776H1149.49L1135.55 48Z" fill="#ED4C4E"/>
<path d="M1192.72 48H1155.92L1164.03 36.9274C1166.08 34.0776 1168.43 33.9356 1171.63 34.0776H1206.65L1192.72 48Z" fill="#ED4C4E"/>
<path d="M1249.88 48H1213.09L1221.2 36.9274C1223.25 34.0776 1225.59 33.9356 1228.79 34.0776H1263.82L1249.88 48Z" fill="#ED4C4E"/>
<path d="M649.865 31.0918H613.071L621.181 20.0192C623.226 17.1694 625.574 17.0273 628.775 17.1694H663.798L649.865 31.0918Z" fill="#ED4C4E"/>
<path d="M707.031 31.0918H670.237L678.347 20.0192C680.392 17.1694 682.74 17.0273 685.941 17.1694H720.964L707.031 31.0918Z" fill="#ED4C4E"/>
<path d="M764.197 31.0918H727.403L735.513 20.0192C737.558 17.1694 739.906 17.0273 743.107 17.1694H778.13L764.197 31.0918Z" fill="#ED4C4E"/>
<path d="M821.363 31.0918H784.569L792.679 20.0192C794.724 17.1694 797.072 17.0273 800.273 17.1694H835.296L821.363 31.0918Z" fill="#ED4C4E"/>
<path d="M878.529 31.0918H841.735L849.845 20.0192C851.89 17.1694 854.238 17.0273 857.439 17.1694H892.462L878.529 31.0918Z" fill="#ED4C4E"/>
<path d="M935.695 31.0918H898.901L907.011 20.0192C909.056 17.1694 911.404 17.0273 914.605 17.1694H949.628L935.695 31.0918Z" fill="#ED4C4E"/>
<path d="M992.861 31.0918H956.067L964.177 20.0192C966.222 17.1694 968.57 17.0273 971.772 17.1694H1006.79L992.861 31.0918Z" fill="#ED4C4E"/>
<path d="M1050.03 31.0918H1013.23L1021.34 20.0192C1023.39 17.1694 1025.74 17.0273 1028.94 17.1694H1063.96L1050.03 31.0918Z" fill="#ED4C4E"/>
<path d="M1107.19 31.0918H1070.4L1078.51 20.0192C1080.55 17.1694 1082.9 17.0273 1086.1 17.1694H1121.13L1107.19 31.0918Z" fill="#ED4C4E"/>
<path d="M1164.36 31.0918H1127.57L1135.67 20.0192C1137.72 17.1694 1140.07 17.0273 1143.27 17.1694H1178.29L1164.36 31.0918Z" fill="#ED4C4E"/>
<path d="M1221.52 31.0918H1184.73L1192.84 20.0192C1194.89 17.1694 1197.23 17.0273 1200.44 17.1694H1235.46L1221.52 31.0918Z" fill="#ED4C4E"/>
<path d="M1278.69 31.0918H1241.9L1250.01 20.0192C1252.05 17.1694 1254.4 17.0273 1257.6 17.1694H1292.62L1278.69 31.0918Z" fill="#ED4C4E"/>
<path d="M678.224 14.1816H641.431L649.54 3.10909C651.585 0.259231 653.934 0.117191 657.135 0.259231H692.158L678.224 14.1816Z" fill="#ED4C4E"/>
<path d="M735.39 14.1816H698.597L706.706 3.10909C708.751 0.259231 711.1 0.117191 714.301 0.259231H749.324L735.39 14.1816Z" fill="#ED4C4E"/>
<path d="M792.556 14.1816H755.763L763.872 3.10909C765.917 0.259231 768.266 0.117191 771.467 0.259231H806.49L792.556 14.1816Z" fill="#ED4C4E"/>
<path d="M849.722 14.1816H812.929L821.038 3.10909C823.083 0.259231 825.432 0.117191 828.633 0.259231H863.656L849.722 14.1816Z" fill="#ED4C4E"/>
<path d="M906.888 14.1816H870.095L878.204 3.10909C880.249 0.259231 882.598 0.117191 885.799 0.259231H920.822L906.888 14.1816Z" fill="#ED4C4E"/>
<path d="M964.054 14.1816H927.261L935.37 3.10909C937.415 0.259231 939.764 0.117191 942.965 0.259231H977.988L964.054 14.1816Z" fill="#ED4C4E"/>
<path d="M1021.22 14.1816H984.427L992.536 3.10909C994.581 0.259231 996.93 0.117191 1000.13 0.259231H1035.15L1021.22 14.1816Z" fill="#ED4C4E"/>
<path d="M1078.39 14.1816H1041.59L1049.7 3.10909C1051.75 0.259231 1054.1 0.117191 1057.3 0.259231H1092.32L1078.39 14.1816Z" fill="#ED4C4E"/>
<path d="M1135.55 14.1816H1098.76L1106.87 3.10909C1108.91 0.259231 1111.26 0.117191 1114.46 0.259231H1149.49L1135.55 14.1816Z" fill="#ED4C4E"/>
<path d="M1192.72 14.1816H1155.92L1164.03 3.10909C1166.08 0.259231 1168.43 0.117191 1171.63 0.259231H1206.65L1192.72 14.1816Z" fill="#ED4C4E"/>
<path d="M1249.88 14.1816H1213.09L1221.2 3.10909C1223.25 0.259231 1225.59 0.117191 1228.79 0.259231H1263.82L1249.88 14.1816Z" fill="#ED4C4E"/>
<path d="M1307.05 14.1816H1270.26L1278.37 3.10909C1280.41 0.259231 1282.76 0.117191 1285.96 0.259231H1320.98L1307.05 14.1816Z" fill="#ED4C4E"/>
<path d="M1313.83 44.0078H1344.7L1333.63 55.0803C1330.88 57.3619 1331.34 57.9302 1326.03 57.9302H1299.9L1313.83 44.0078Z" fill="#410603"/>
<path d="M1371 44.0078H1401.87L1390.79 55.0803C1388.05 57.3619 1388.51 57.9302 1383.2 57.9302H1357.07L1371 44.0078Z" fill="#410603"/>
<path d="M1428.17 44.0078H1459.03L1447.96 55.0803C1445.22 57.3619 1445.67 57.9302 1440.37 57.9302H1414.23L1428.17 44.0078Z" fill="#410603"/>
<path d="M1485.33 44.0078H1516.2L1505.13 55.0803C1502.38 57.3619 1502.84 57.9302 1497.53 57.9302H1471.4L1485.33 44.0078Z" fill="#410603"/>
<path d="M1542.5 44.0078H1573.37L1562.29 55.0803C1559.55 57.3619 1560.01 57.9302 1554.7 57.9302H1528.56L1542.5 44.0078Z" fill="#410603"/>
<path d="M1599.66 44.0078H1630.53L1619.46 55.0803C1616.71 57.3619 1617.17 57.9302 1611.86 57.9302H1585.73L1599.66 44.0078Z" fill="#410603"/>
<path d="M1656.83 44.0078H1687.7L1676.62 55.0803C1673.88 57.3619 1674.34 57.9302 1669.03 57.9302H1642.9L1656.83 44.0078Z" fill="#410603"/>
<path d="M1714 44.0078H1744.86L1733.79 55.0803C1731.05 57.3619 1731.5 57.9302 1726.2 57.9302H1700.06L1714 44.0078Z" fill="#410603"/>
<path d="M1771.16 44.0078H1802.03L1790.96 55.0803C1788.21 57.3619 1788.67 57.9302 1783.36 57.9302H1757.23L1771.16 44.0078Z" fill="#410603"/>
<path d="M1828.33 44.0078H1859.2L1848.12 55.0803C1845.38 57.3619 1845.84 57.9302 1840.53 57.9302H1814.39L1828.33 44.0078Z" fill="#410603"/>
<path d="M1885.49 44.0078H1916.36L1905.29 55.0803C1902.54 57.3619 1903 57.9302 1897.69 57.9302H1871.56L1885.49 44.0078Z" fill="#410603"/>
<path d="M1342.64 27.0996H1373.51L1362.44 38.1721C1359.69 40.4537 1360.15 41.022 1354.84 41.022H1328.71L1342.64 27.0996Z" fill="#410603"/>
<path d="M1399.81 27.0996H1430.67L1419.6 38.1721C1416.86 40.4537 1417.31 41.022 1412.01 41.022H1385.87L1399.81 27.0996Z" fill="#410603"/>
<path d="M1456.97 27.0996H1487.84L1476.77 38.1721C1474.02 40.4537 1474.48 41.022 1469.17 41.022H1443.04L1456.97 27.0996Z" fill="#410603"/>
<path d="M1514.14 27.0996H1545.01L1533.93 38.1721C1531.19 40.4537 1531.65 41.022 1526.34 41.022H1500.2L1514.14 27.0996Z" fill="#410603"/>
<path d="M1571.3 27.0996H1602.17L1591.1 38.1721C1588.35 40.4537 1588.81 41.022 1583.5 41.022H1557.37L1571.3 27.0996Z" fill="#410603"/>
<path d="M1628.47 27.0996H1659.34L1648.27 38.1721C1645.52 40.4537 1645.98 41.022 1640.67 41.022H1614.54L1628.47 27.0996Z" fill="#410603"/>
<path d="M1685.64 27.0996H1716.5L1705.43 38.1721C1702.69 40.4537 1703.14 41.022 1697.84 41.022H1671.7L1685.64 27.0996Z" fill="#410603"/>
<path d="M1742.8 27.0996H1773.67L1762.6 38.1721C1759.85 40.4537 1760.31 41.022 1755 41.022H1728.87L1742.8 27.0996Z" fill="#410603"/>
<path d="M1799.97 27.0996H1830.84L1819.76 38.1721C1817.02 40.4537 1817.48 41.022 1812.17 41.022H1786.03L1799.97 27.0996Z" fill="#410603"/>
<path d="M1857.13 27.0996H1888L1876.93 38.1721C1874.18 40.4537 1874.64 41.022 1869.33 41.022H1843.2L1857.13 27.0996Z" fill="#410603"/>
<path d="M1914.3 27.0996H1945.17L1934.1 38.1721C1931.35 40.4537 1931.81 41.022 1926.5 41.022H1900.37L1914.3 27.0996Z" fill="#410603"/>
<path d="M1371 10.1894H1401.87L1390.79 21.262C1388.05 23.5435 1388.51 24.1118 1383.2 24.1118H1357.07L1371 10.1894Z" fill="#410603"/>
<path d="M1428.17 10.1894H1459.03L1447.96 21.262C1445.22 23.5435 1445.67 24.1118 1440.37 24.1118H1414.23L1428.17 10.1894Z" fill="#410603"/>
<path d="M1485.33 10.1894H1516.2L1505.13 21.262C1502.38 23.5435 1502.84 24.1118 1497.53 24.1118H1471.4L1485.33 10.1894Z" fill="#410603"/>
<path d="M1542.5 10.1894H1573.37L1562.29 21.262C1559.55 23.5435 1560.01 24.1118 1554.7 24.1118H1528.56L1542.5 10.1894Z" fill="#410603"/>
<path d="M1599.66 10.1894H1630.53L1619.46 21.262C1616.71 23.5435 1617.17 24.1118 1611.86 24.1118H1585.73L1599.66 10.1894Z" fill="#410603"/>
<path d="M1656.83 10.1894H1687.7L1676.62 21.262C1673.88 23.5435 1674.34 24.1118 1669.03 24.1118H1642.9L1656.83 10.1894Z" fill="#410603"/>
<path d="M1714 10.1894H1744.86L1733.79 21.262C1731.05 23.5435 1731.5 24.1118 1726.2 24.1118H1700.06L1714 10.1894Z" fill="#410603"/>
<path d="M1771.16 10.1894H1802.03L1790.96 21.262C1788.21 23.5435 1788.67 24.1118 1783.36 24.1118H1757.23L1771.16 10.1894Z" fill="#410603"/>
<path d="M1828.33 10.1894H1859.2L1848.12 21.262C1845.38 23.5435 1845.84 24.1118 1840.53 24.1118H1814.39L1828.33 10.1894Z" fill="#410603"/>
<path d="M1885.49 10.1894H1916.36L1905.29 21.262C1902.54 23.5435 1903 24.1118 1897.69 24.1118H1871.56L1885.49 10.1894Z" fill="#410603"/>
<path d="M1315.69 48H1278.9L1287 36.9274C1289.05 34.0776 1291.4 33.9356 1294.6 34.0776H1329.62L1315.69 48Z" fill="#ED4C4E"/>
<path d="M1372.86 48H1336.06L1344.17 36.9274C1346.22 34.0776 1348.56 33.9356 1351.77 34.0776H1386.79L1372.86 48Z" fill="#ED4C4E"/>
<path d="M1430.02 48H1393.23L1401.34 36.9274C1403.38 34.0776 1405.73 33.9356 1408.93 34.0776H1443.95L1430.02 48Z" fill="#ED4C4E"/>
<path d="M1487.19 48H1450.39L1458.5 36.9274C1460.55 34.0776 1462.9 33.9356 1466.1 34.0776H1501.12L1487.19 48Z" fill="#ED4C4E"/>
<path d="M1544.35 48H1507.56L1515.67 36.9274C1517.71 34.0776 1520.06 33.9356 1523.26 34.0776H1558.29L1544.35 48Z" fill="#ED4C4E"/>
<path d="M1601.52 48H1564.73L1572.84 36.9274C1574.88 34.0776 1577.23 33.9356 1580.43 34.0776H1615.45L1601.52 48Z" fill="#ED4C4E"/>
<path d="M1658.69 48H1621.89L1630 36.9274C1632.05 34.0776 1634.39 33.9356 1637.6 34.0776H1672.62L1658.69 48Z" fill="#ED4C4E"/>
<path d="M1715.85 48H1679.06L1687.17 36.9274C1689.21 34.0776 1691.56 33.9356 1694.76 34.0776H1729.78L1715.85 48Z" fill="#ED4C4E"/>
<path d="M1773.02 48H1736.22L1744.33 36.9274C1746.38 34.0776 1748.73 33.9356 1751.93 34.0776H1786.95L1773.02 48Z" fill="#ED4C4E"/>
<path d="M1830.18 48H1793.39L1801.5 36.9274C1803.54 34.0776 1805.89 33.9356 1809.09 34.0776H1844.12L1830.18 48Z" fill="#ED4C4E"/>
<path d="M1887.35 48H1850.56L1858.67 36.9274C1860.71 34.0776 1863.06 33.9356 1866.26 34.0776H1901.28L1887.35 48Z" fill="#ED4C4E"/>
<path d="M1944.52 48H1907.72L1915.83 36.9274C1917.88 34.0776 1920.22 33.9356 1923.43 34.0776H1958.45L1944.52 48Z" fill="#ED4C4E"/>
<path d="M1344.5 31.0918H1307.7L1315.81 20.0192C1317.86 17.1694 1320.21 17.0273 1323.41 17.1694H1358.43L1344.5 31.0918Z" fill="#ED4C4E"/>
<path d="M1401.66 31.0918H1364.87L1372.98 20.0192C1375.02 17.1694 1377.37 17.0273 1380.57 17.1694H1415.6L1401.66 31.0918Z" fill="#ED4C4E"/>
<path d="M1458.83 31.0918H1422.03L1430.14 20.0192C1432.19 17.1694 1434.54 17.0273 1437.74 17.1694H1472.76L1458.83 31.0918Z" fill="#ED4C4E"/>
<path d="M1515.99 31.0918H1479.2L1487.31 20.0192C1489.35 17.1694 1491.7 17.0273 1494.9 17.1694H1529.93L1515.99 31.0918Z" fill="#ED4C4E"/>
<path d="M1573.16 31.0918H1536.37L1544.48 20.0192C1546.52 17.1694 1548.87 17.0273 1552.07 17.1694H1587.09L1573.16 31.0918Z" fill="#ED4C4E"/>
<path d="M1630.33 31.0918H1593.53L1601.64 20.0192C1603.69 17.1694 1606.04 17.0273 1609.24 17.1694H1644.26L1630.33 31.0918Z" fill="#ED4C4E"/>
<path d="M1687.49 31.0918H1650.7L1658.81 20.0192C1660.85 17.1694 1663.2 17.0273 1666.4 17.1694H1701.43L1687.49 31.0918Z" fill="#ED4C4E"/>
<path d="M1744.66 31.0918H1707.86L1715.97 20.0192C1718.02 17.1694 1720.37 17.0273 1723.57 17.1694H1758.59L1744.66 31.0918Z" fill="#ED4C4E"/>
<path d="M1801.82 31.0918H1765.03L1773.14 20.0192C1775.18 17.1694 1777.53 17.0273 1780.73 17.1694H1815.76L1801.82 31.0918Z" fill="#ED4C4E"/>
<path d="M1858.99 31.0918H1822.2L1830.31 20.0192C1832.35 17.1694 1834.7 17.0273 1837.9 17.1694H1872.92L1858.99 31.0918Z" fill="#ED4C4E"/>
<path d="M1916.16 31.0918H1879.36L1887.47 20.0192C1889.52 17.1694 1891.87 17.0273 1895.07 17.1694H1930.09L1916.16 31.0918Z" fill="#ED4C4E"/>
<path d="M1372.86 14.1816H1336.06L1344.17 3.10909C1346.22 0.259231 1348.56 0.117191 1351.77 0.259231H1386.79L1372.86 14.1816Z" fill="#ED4C4E"/>
<path d="M1430.02 14.1816H1393.23L1401.34 3.10909C1403.38 0.259231 1405.73 0.117191 1408.93 0.259231H1443.95L1430.02 14.1816Z" fill="#ED4C4E"/>
<path d="M1487.19 14.1816H1450.39L1458.5 3.10909C1460.55 0.259231 1462.9 0.117191 1466.1 0.259231H1501.12L1487.19 14.1816Z" fill="#ED4C4E"/>
<path d="M1544.35 14.1816H1507.56L1515.67 3.10909C1517.71 0.259231 1520.06 0.117191 1523.26 0.259231H1558.29L1544.35 14.1816Z" fill="#ED4C4E"/>
<path d="M1601.52 14.1816H1564.73L1572.84 3.10909C1574.88 0.259231 1577.23 0.117191 1580.43 0.259231H1615.45L1601.52 14.1816Z" fill="#ED4C4E"/>
<path d="M1658.69 14.1816H1621.89L1630 3.10909C1632.05 0.259231 1634.39 0.117191 1637.6 0.259231H1672.62L1658.69 14.1816Z" fill="#ED4C4E"/>
<path d="M1715.85 14.1816H1679.06L1687.17 3.10909C1689.21 0.259231 1691.56 0.117191 1694.76 0.259231H1729.78L1715.85 14.1816Z" fill="#ED4C4E"/>
<path d="M1773.02 14.1816H1736.22L1744.33 3.10909C1746.38 0.259231 1748.73 0.117191 1751.93 0.259231H1786.95L1773.02 14.1816Z" fill="#ED4C4E"/>
<path d="M1830.18 14.1816H1793.39L1801.5 3.10909C1803.54 0.259231 1805.89 0.117191 1809.09 0.259231H1844.12L1830.18 14.1816Z" fill="#ED4C4E"/>
<path d="M1887.35 14.1816H1850.56L1858.67 3.10909C1860.71 0.259231 1863.06 0.117191 1866.26 0.259231H1901.28L1887.35 14.1816Z" fill="#ED4C4E"/>
<path d="M1944.52 14.1816H1907.72L1915.83 3.10909C1917.88 0.259231 1920.22 0.117191 1923.43 0.259231H1958.45L1944.52 14.1816Z" fill="#ED4C4E"/>
</svg>
