<svg width="524" height="161" viewBox="0 0 524 161" fill="none" xmlns="http://www.w3.org/2000/svg">
<rect x="373.92" y="0.0410156" width="149.166" height="149.166" rx="74.583" fill="#410603"/>
<rect x="373.92" y="0.0410156" width="149.166" height="149.166" rx="74.583" fill="#410603"/>
<path d="M458.978 55.331L468.907 50.8426L471.764 51.2502C471.129 52.7917 469.751 56.038 469.316 56.6909C468.88 57.3438 466.504 63.5825 465.371 66.6202L464.147 75.4614L465.915 84.0305L469.724 93.8239L472.308 99.4006L463.195 96.2722L456.258 93.6878L447.417 92.1916L440.888 93.2798L433.543 94.912L426.334 96.6802L422.525 97.2245L423.749 94.0959C424.792 91.3302 426.959 85.5539 427.286 84.5746C427.612 83.5953 429.417 77.8191 430.278 75.0534L430.006 67.4363L425.926 56.5549L423.75 50.8422L427.558 51.658L438.983 55.4666L448.369 56.963L458.978 55.331Z" fill="#ED4C4E"/>
<path d="M78.9513 7.24556C84.9363 6.02577 90.7013 9.90528 91.9212 15.8901L118.412 149.567L145.015 15.8901C145.9 11.5677 149.337 8.13104 153.771 7.24555C159.756 6.02577 165.521 9.90528 166.741 15.8901L193.343 149.567L219.834 15.8901C220.72 11.5677 224.157 8.13103 228.59 7.24555C234.575 6.02576 240.34 9.90528 241.56 15.8901L268.051 149.567L295.319 12.6788C295.985 8.9106 299.31 6.25112 303.078 6.25112C307.512 6.25112 311.06 9.79912 311.06 14.2331L311.058 160.654L299.973 160.654L299.973 46.0421L279.025 151.787C278.139 156.109 274.702 159.546 270.269 160.431C264.284 161.651 258.407 157.772 257.19 151.787L230.697 18.1095L204.196 151.787C203.308 156.112 199.873 159.546 195.44 160.434C189.452 161.654 183.578 157.774 182.359 151.787L155.868 18.1095L129.377 151.787C128.489 156.112 125.055 159.546 120.621 160.434C114.633 161.654 108.759 157.774 107.54 151.787L81.0491 18.1095L54.5581 151.787C53.6699 156.112 50.2357 159.546 45.8021 160.434C39.8146 161.654 33.9406 157.774 32.7333 151.787L11.7719 46.0421L11.7719 160.654L0.6875 160.654L0.687494 14.2268C0.687493 10.4586 3.34723 7.13344 7.11515 6.35626C11.4375 5.57935 15.5399 8.35045 16.4254 12.6754L43.6935 149.564L70.1871 15.8867C71.0852 11.5643 74.5219 8.12761 78.9557 7.24214L78.9513 7.24556Z" fill="#410603"/>
</svg>
