<svg width="69" height="48" viewBox="0 0 69 48" fill="none" xmlns="http://www.w3.org/2000/svg">
<path d="M21.0621 32.8779H21.0621L21.0621 32.8761C21.0593 32.6847 21.1327 32.5001 21.2659 32.3628C21.3992 32.2255 21.5816 32.1466 21.7729 32.1436C21.8695 32.1421 21.9655 32.1601 22.0551 32.1963C22.1447 32.2326 22.2261 32.2865 22.2945 32.3548C22.3629 32.4231 22.4169 32.5044 22.4532 32.594C22.4896 32.6835 22.5076 32.7794 22.5063 32.8761L22.5062 32.8761V32.8779V46.1487V46.2737H22.6312H46.3493H46.4743V46.1487L46.4743 32.8779L46.4743 32.8761C46.4729 32.7804 46.4906 32.6855 46.5263 32.5967C46.562 32.5078 46.6149 32.427 46.6821 32.3589C46.7493 32.2907 46.8293 32.2367 46.9176 32.1997C47.0059 32.1628 47.1007 32.1438 47.1963 32.1438C47.292 32.1438 47.3868 32.1628 47.4751 32.1997C47.5634 32.2367 47.6434 32.2907 47.7106 32.3589C47.7778 32.427 47.8307 32.5079 47.8664 32.5967C47.9021 32.6854 47.9198 32.7804 47.9184 32.8761V32.8779V46.9957C47.9184 47.1872 47.8423 47.3709 47.7069 47.5063C47.5715 47.6418 47.3878 47.7179 47.1963 47.7179H21.7842C21.5927 47.7179 21.409 47.6418 21.2736 47.5063C21.1382 47.3709 21.0621 47.1872 21.0621 46.9958V32.8779Z" fill="#410603" stroke="#F5F0EE" stroke-width="0.25"/>
<path d="M0.125087 26.0902H0.1251L0.125074 26.0884C0.123716 25.9936 0.14105 25.8994 0.176081 25.8112C0.211114 25.7231 0.263162 25.6427 0.329254 25.5747C0.395341 25.5067 0.47418 25.4524 0.561274 25.4149C0.648356 25.3773 0.741985 25.3573 0.836816 25.3559C0.933316 25.3546 1.02918 25.3726 1.11873 25.409C1.20824 25.4453 1.28953 25.4992 1.3578 25.5674C1.42609 25.6357 1.47999 25.717 1.51631 25.8065C1.55263 25.896 1.57063 25.9919 1.56925 26.0884L1.56923 26.0884V26.0902V39.361V39.4861L1.69429 39.486L18.1571 39.4784L18.1589 39.4783C18.2547 39.4769 18.3498 39.4944 18.4387 39.53C18.5277 39.5657 18.6086 39.6186 18.6768 39.6858C18.7451 39.753 18.7993 39.8331 18.8363 39.9214C18.8733 40.0098 18.8924 40.1046 18.8924 40.2004C18.8924 40.2962 18.8733 40.391 18.8363 40.4794C18.7993 40.5677 18.7451 40.6478 18.6769 40.715C18.6086 40.7822 18.5277 40.8352 18.4387 40.8708C18.3498 40.9064 18.2547 40.924 18.1589 40.9225L18.1569 40.9225L0.848207 40.9301H0.848112C0.753184 40.9302 0.65919 40.9117 0.571501 40.8754C0.483797 40.8392 0.404085 40.786 0.336928 40.7189C0.269784 40.6519 0.216509 40.5722 0.180157 40.4845C0.143805 40.3969 0.125094 40.3029 0.125087 40.208V26.0902Z" fill="#410603" stroke="#F5F0EE" stroke-width="0.25"/>
<path d="M27.7319 25.9636C27.7319 22.2459 30.7684 19.2131 34.4912 19.2131C38.214 19.2131 41.2495 22.2458 41.2495 25.9636C41.2495 29.6813 38.2141 32.713 34.4912 32.713C30.7683 32.713 27.7319 29.6812 27.7319 25.9636Z" stroke="#410603" stroke-width="1.25"/>
<path d="M27.7319 7.56373C27.7319 3.84599 30.7684 0.813232 34.4912 0.813232C38.214 0.813232 41.2495 3.84587 41.2495 7.56373C41.2495 11.2814 38.2141 14.3131 34.4912 14.3131C30.7683 14.3131 27.7319 11.2813 27.7319 7.56373Z" stroke="#410603" stroke-width="1.25"/>
<path d="M6.79492 19.1751C6.79492 15.4572 9.8304 12.4246 13.5531 12.4246C17.276 12.4246 20.3124 15.4573 20.3124 19.1751C20.3124 22.8928 17.276 25.9255 13.5531 25.9255C9.8304 25.9255 6.79492 22.8929 6.79492 19.1751Z" stroke="#410603" stroke-width="1.25"/>
<path d="M48.688 19.1751C48.688 15.4572 51.7235 12.4246 55.4462 12.4246C59.169 12.4246 62.2055 15.4573 62.2055 19.1751C62.2055 22.8928 59.1691 25.9255 55.4462 25.9255C51.7235 25.9255 48.688 22.8929 48.688 19.1751Z" stroke="#410603" stroke-width="1.25"/>
<path d="M67.4303 26.0903L67.4303 26.0885C67.4289 25.9936 67.4463 25.8994 67.4813 25.8113C67.5163 25.7232 67.5684 25.6428 67.6345 25.5748C67.7006 25.5068 67.7794 25.4525 67.8665 25.4149C67.9536 25.3774 68.0472 25.3574 68.142 25.356C68.2386 25.3546 68.3345 25.3726 68.424 25.409C68.5135 25.4453 68.5948 25.4992 68.6631 25.5675C68.7314 25.6358 68.7853 25.7171 68.8216 25.8065C68.8579 25.896 68.8759 25.9919 68.8745 26.0885V26.0903V40.2081C68.8745 40.3995 68.7985 40.583 68.6633 40.7183C68.5281 40.8537 68.3447 40.9299 68.1533 40.9302L50.8679 40.9379L50.8663 40.9379C50.7707 40.9391 50.6759 40.9214 50.5872 40.8857C50.4985 40.85 50.4178 40.7971 50.3498 40.7299C50.2817 40.6628 50.2277 40.5829 50.1908 40.4947C50.1539 40.4065 50.1348 40.3119 50.1348 40.2163C50.1347 40.1207 50.1536 40.026 50.1904 39.9378C50.2272 39.8496 50.2811 39.7696 50.3491 39.7024C50.417 39.6351 50.4977 39.5821 50.5863 39.5463C50.6749 39.5104 50.7698 39.4926 50.8653 39.4937L50.8669 39.4937L67.3054 39.486L67.4303 39.486V39.361L67.4303 26.0903Z" fill="#410603" stroke="#F5F0EE" stroke-width="0.25"/>
</svg>
